<?xml version="1.0" encoding="utf-8"?>
<svg version="1.1" xmlns:xlink="http://www.w3.org/1999/xlink" width="50px" height="50px" xmlns="http://www.w3.org/2000/svg">
  <g transform="matrix(1 0 0 1 -718 -133 )">
    <path d="M 49.00568181818182 19.176136363636363  C 49.66856060606061 19.839015151515145  50 20.64393939393939  50 21.59090909090909  L 50 28.409090909090907  C 50 29.35606060606061  49.66856060606061 30.160984848484844  49.00568181818182 30.823863636363637  C 48.34280303030303 31.48674242424242  47.53787878787879 31.818181818181817  46.590909090909086 31  L 31 31  L 31 46.59090909090909  C 31.818181818181817 47.53787878787879  31.486742424242426 48.34280303030303  30.823863636363637 49.00568181818182  C 30.160984848484855 49.66856060606061  29.35606060606061 50  28.40909090909091 50  L 21.59090909090909 50  C 20.643939393939394 50  19.839015151515156 49.66856060606061  19.176136363636363 49.00568181818182  C 18.513257575757578 48.34280303030303  18.181818181818183 47.53787878787879  19 46.59090909090909  L 19 31  L 3.4090909090909087 31  C 2.4621212121212124 31.818181818181817  1.65719696969697 31.48674242424242  0.9943181818181818 30.823863636363637  C 0.3314393939393939 30.160984848484844  0 29.35606060606061  0 28.409090909090907  L 0 21.59090909090909  C 0 20.64393939393939  0.3314393939393939 19.839015151515145  0.9943181818181818 19.176136363636363  C 1.65719696969697 18.513257575757574  2.4621212121212124 18.181818181818183  3.4090909090909087 19  L 19 19  L 19 3.409090909090912  C 18.181818181818183 2.46212121212121  18.513257575757578 1.6571969696969668  19.176136363636363 0.9943181818181823  C 19.839015151515156 0.33143939393939226  20.643939393939394 0  21.59090909090909 0  L 28.40909090909091 0  C 29.35606060606061 0  30.160984848484855 0.33143939393939226  30.823863636363637 0.9943181818181823  C 31.486742424242426 1.6571969696969668  31.818181818181817 2.46212121212121  31 3.409090909090912  L 31 19  L 46.590909090909086 19  C 47.53787878787879 18.181818181818183  48.34280303030303 18.513257575757574  49.00568181818182 19.176136363636363  Z " fill-rule="nonzero" fill="#666666" stroke="none" transform="matrix(1 0 0 1 718 133 )" />
  </g>
</svg>