<?xml version="1.0" encoding="utf-8"?>
<svg version="1.1" xmlns:xlink="http://www.w3.org/1999/xlink" width="32px" height="26px" xmlns="http://www.w3.org/2000/svg">
  <g transform="matrix(1 0 0 1 -397 -63 )">
    <path d="M 14.923766816143498 19.5  L 15.928251121076233 19.5  L 18.00896860986547 17.357954545454547  L 15.282511210762332 14.551136363636362  L 13.201793721973095 16.69318181818182  L 13.201793721973095 17.72727272727273  L 14.923766816143498 17.72727272727273  L 14.923766816143498 19.5  Z M 23.80269058295964 6.813920454545455  C 24.00597907324365 6.604640151515149  24.011958146487295 6.401515151515149  23.820627802690584 6.204545454545455  C 23.629297458893873 6.007575757575755  23.431988041853515 6.013731060606059  23.228699551569505 6.223011363636364  L 16.95067264573991 12.686079545454545  C 16.747384155455904 12.895359848484848  16.741405082212257 13.098484848484846  16.932735426008968 13.295454545454545  C 17.124065769805682 13.492424242424242  17.32137518684604 13.486268939393936  17.524663677130047 13.276988636363638  L 23.80269058295964 6.813920454545455  Z M 24.896860986547086 16.63778409090909  C 25.136023916292977 16.736268939393938  25.255605381165918 16.91477272727273  25.255605381165918 17.173295454545453  L 25.255605381165918 20.68181818181818  C 25.255605381165918 22.146780303030305  24.75037369207773 23.39938446969697  23.739910313901344 24.43963068181818  C 22.729446935724965 25.479876893939394  21.51270553064275 26  20.08968609865471 26  L 5.165919282511211 26  C 3.742899850523169 26  2.5261584454409567 25.479876893939394  1.515695067264574 24.43963068181818  C 0.5052316890881913 23.39938446969697  0 22.146780303030305  0 20.68181818181818  L 0 5.318181818181819  C 0 3.8532196969696937  0.5052316890881913 2.6006155303030294  1.515695067264574 1.5603693181818192  C 2.5261584454409567 0.5201231060606035  3.742899850523169 0  5.165919282511211 0  L 20.08968609865471 0  C 20.84304932735426 0  21.542600896860986 0.15388257575757436  22.18834080717489 0.46164772727272596  C 22.367713004484305 0.547821969696968  22.475336322869953 0.6893939393939388  22.51121076233184 0.8863636363636356  C 22.54708520179372 1.0956439393939388  22.493273542600896 1.274147727272726  22.349775784753362 1.421875  L 21.47085201793722 2.326704545454545  C 21.303437967115098 2.4990530303030294  21.112107623318387 2.548295454545455  20.896860986547086 2.4744318181818192  C 20.621823617339313 2.4005681818181808  20.352765321375188 2.363636363636364  20.08968609865471 2.363636363636364  L 5.165919282511211 2.363636363636364  C 4.376681614349776 2.363636363636364  3.701046337817639 2.6529356060606037  3.1390134529147984 3.2315340909090904  C 2.5769805680119586 3.8101325757575744  2.295964125560538 4.505681818181819  2.295964125560538 5.318181818181819  L 2.295964125560538 20.68181818181818  C 2.295964125560538 21.49431818181818  2.5769805680119586 22.189867424242422  3.1390134529147984 22.76846590909091  C 3.701046337817639 23.347064393939394  4.376681614349776 23.636363636363637  5.165919282511211 23.636363636363637  L 20.08968609865471 23.636363636363637  C 20.878923766816143 23.636363636363637  21.55455904334828 23.347064393939394  22.116591928251122 22.76846590909091  C 22.678624813153963 22.189867424242422  22.95964125560538 21.49431818181818  22.95964125560538 20.68181818181818  L 22.95964125560538 18.35511363636364  C 22.95964125560538 18.195075757575754  23.013452914798208 18.05965909090909  23.121076233183857 17.94886363636364  L 24.269058295964125 16.767045454545453  C 24.44843049327354 16.58238636363636  24.6576980568012 16.539299242424242  24.896860986547086 16.63778409090909  Z M 11.47982062780269 15.954545454545455  L 23.533632286995516 3.545454545454545  L 28.699551569506728 8.863636363636365  L 16.6457399103139 21.27272727272727  L 11.47982062780269 21.27272727272727  L 11.47982062780269 15.954545454545455  Z M 32 4.727272727272726  C 32 5.219696969696968  31.83258594917788 5.638257575757574  31.49775784753363 5.982954545454545  L 29.847533632286996 7.681818181818181  L 24.681614349775785 2.363636363636364  L 26.331838565022423 0.664772727272726  C 26.666666666666668 0.3200757575757551  27.07324364723468 0.14772727272727404  27.55156950672646 0.14772727272727404  C 28.029895366218238 0.14772727272727404  28.43647234678625 0.3200757575757551  28.771300448430495 0.664772727272726  L 31.49775784753363 3.4715909090909096  C 31.83258594917788 3.8162878787878745  32 4.234848484848484  32 4.727272727272726  Z " fill-rule="nonzero" fill="#666666" stroke="none" transform="matrix(1 0 0 1 397 63 )" />
  </g>
</svg>