<?xml version="1.0" encoding="utf-8"?>
<svg version="1.1" xmlns:xlink="http://www.w3.org/1999/xlink" width="41px" height="22px" xmlns="http://www.w3.org/2000/svg">
  <g transform="matrix(1 0 0 1 -414 -107 )">
    <path d="M 434.5 107  C 445.98 107  455 111.84  455 118  C 455 124.16  445.98 129  434.5 129  C 423.02 129  414 124.16  414 118  C 414 111.84  423.02 107  434.5 107  Z " fill-rule="nonzero" fill="#00ff00" stroke="none" />
    <path d="M 434.5 107.5  C 445.7 107.5  454.5 112.12  454.5 118  C 454.5 123.88  445.7 128.5  434.5 128.5  C 423.3 128.5  414.5 123.88  414.5 118  C 414.5 112.12  423.3 107.5  434.5 107.5  Z " stroke-width="1" stroke="#797979" fill="none" />
  </g>
</svg>