<?xml version="1.0" encoding="utf-8"?>
<svg version="1.1" xmlns:xlink="http://www.w3.org/1999/xlink" width="21px" height="22px" xmlns="http://www.w3.org/2000/svg">
  <g transform="matrix(1 0 0 1 -284 -108 )">
    <path d="M 294.5 108  C 300.38 108  305 112.84  305 119  C 305 125.16  300.38 130  294.5 130  C 288.62 130  284 125.16  284 119  C 284 112.84  288.62 108  294.5 108  Z " fill-rule="nonzero" fill="#ffffff" stroke="none" />
    <path d="M 294.5 108.5  C 300.1 108.5  304.5 113.12  304.5 119  C 304.5 124.88  300.1 129.5  294.5 129.5  C 288.9 129.5  284.5 124.88  284.5 119  C 284.5 113.12  288.9 108.5  294.5 108.5  Z " stroke-width="1" stroke="#797979" fill="none" />
  </g>
</svg>