<?xml version="1.0" encoding="utf-8"?>
<svg version="1.1" xmlns:xlink="http://www.w3.org/1999/xlink" width="21px" height="22px" xmlns="http://www.w3.org/2000/svg">
  <g transform="matrix(1 0 0 1 -303 -108 )">
    <path d="M 313.5 108  C 319.38 108  324 112.84  324 119  C 324 125.16  319.38 130  313.5 130  C 307.62 130  303 125.16  303 119  C 303 112.84  307.62 108  313.5 108  Z " fill-rule="nonzero" fill="#ffffff" stroke="none" />
    <path d="M 313.5 108.5  C 319.1 108.5  323.5 113.12  323.5 119  C 323.5 124.88  319.1 129.5  313.5 129.5  C 307.9 129.5  303.5 124.88  303.5 119  C 303.5 113.12  307.9 108.5  313.5 108.5  Z " stroke-width="1" stroke="#797979" fill="none" />
  </g>
</svg>