<?xml version="1.0" encoding="utf-8"?>
<svg version="1.1" xmlns:xlink="http://www.w3.org/1999/xlink" width="35px" height="27px" xmlns="http://www.w3.org/2000/svg">
  <g transform="matrix(1 0 0 1 -67 -68 )">
    <path d="M 32.314453125 24.36328125  C 32.43815104166667 24.24183238636364  32.5 24.098011363636367  32 23.93181818181818  L 32 9.204545454545455  C 32.08333333333334 9.664772727272727  31.63411458333334 10.086647727272727  31.15234375 10.470170454545455  C 27.662760416666668 13.10369318181818  24.889322916666668 15.264204545454547  22.83203125 16.951704545454547  C 22.16796875 17.50142045454545  21.627604166666668 17.9296875  21.2109375 18.23650568181818  C 20.794270833333336 18.543323863636363  20.23111979166667 18.853338068181817  19.521484375 19.166548295454547  C 18.811848958333336 19.479758522727273  18.14453125 19.636363636363637  17.51953125 19.636363636363637  L 17.5 19.636363636363637  L 17.48046875 19.636363636363637  C 16.85546875 19.636363636363637  16.188151041666668 19.479758522727273  15.478515625 19.166548295454547  C 14.768880208333334 18.853338068181817  14.205729166666668 18.543323863636363  13.7890625 18.23650568181818  C 13.372395833333336 17.9296875  12.83203125 17.50142045454545  12.16796875 16.951704545454547  C 10.110677083333336 15.264204545454547  7.337239583333335 13.10369318181818  3.84765625 10.470170454545455  C 3.365885416666667 10.086647727272727  2.916666666666667 9.664772727272727  3 9.204545454545455  L 3 23.93181818181818  C 2.5 24.098011363636367  2.561848958333334 24.24183238636364  2.685546875 24.36328125  C 2.8092447916666665 24.48473011363636  2.955729166666667 24.545454545454543  3.125 24.545454545454543  L 31.875 24.545454545454543  C 32.044270833333336 24.545454545454543  32.190755208333336 24.48473011363636  32.314453125 24.36328125  Z M 31.591796875 6.299360795454545  C 32.197265625 5.3725142045454515  32.5 4.5319602272727275  32.5 3.7776988636363633  L 32.5 3.5667613636363633  L 32.5 3.307883522727274  C 32.5 3.307883522727274  32.49674479166667 3.2247869318181777  32.490234375 3.05859375  C 32.483723958333336 2.8924005681818166  32.464192708333336 2.812499999999996  32.431640625 2.8188920454545445  C 32.39908854166667 2.8252840909090904  32.36328125 2.7677556818181794  32.32421875 2.6463068181818183  C 32.28515625 2.5248579545454515  32.2265625 2.476917613636362  32.1484375 2.5024857954545445  C 32.0703125 2.528053977272727  31.97916666666667 2.5120738636363633  31.875 2.4545454545454555  L 3.125 2.4545454545454555  C 2.955729166666667 2.4545454545454555  2.8092447916666665 2.515269886363633  2.685546875 2.63671875  C 2.561848958333334 2.758167613636361  2.5 2.901988636363635  2.5 3.0681818181818183  C 2.5 5.215909090909093  3.45703125 7.0312499999999964  5.37109375 8.514204545454545  C 7.884114583333335 10.457386363636362  10.494791666666668 12.483664772727273  13.203125 14.593039772727273  C 13.28125 14.656960227272725  13.509114583333336 14.845525568181817  13.88671875 15.158735795454547  C 14.264322916666668 15.471946022727272  14.563802083333334 15.711647727272725  14.78515625 15.87784090909091  C 15.00651041666667 16.04403409090909  15.296223958333336 16.24538352272727  15.654296875 16.481889204545453  C 16.012369791666668 16.718394886363633  16.341145833333336 16.894176136363637  16.640625 17.009232954545453  C 16.940104166666668 17.124289772727273  17.220052083333336 17.18181818181818  17.48046875 17.18181818181818  L 17.5 17.18181818181818  L 17.51953125 17.18181818181818  C 17.779947916666668 17.18181818181818  18.059895833333336 17.124289772727273  18.359375 17.009232954545453  C 18.65885416666667 16.894176136363637  18.987630208333332 16.718394886363633  19.345703125 16.481889204545453  C 19.703776041666668 16.24538352272727  19.993489583333332 16.04403409090909  20.21484375 15.87784090909091  C 20.43619791666667 15.711647727272725  20.735677083333336 15.471946022727272  21.11328125 15.158735795454547  C 21.490885416666668 14.845525568181817  21.71875 14.656960227272725  21.796875 14.593039772727273  C 24.505208333333332 12.483664772727273  27.115885416666668 10.457386363636362  29.62890625 8.514204545454545  C 30.33203125 7.964488636363635  30.986328125 7.226207386363635  31.591796875 6.299360795454545  Z M 34.08203125 0.9012784090909077  C 34.69401041666667 1.5021306818181794  35 2.2244318181818183  35 3.0681818181818183  L 35 23.93181818181818  C 35 24.77556818181818  34.69401041666667 25.49786931818182  34.08203125 26.098721590909093  C 33.47005208333334 26.69957386363636  32.73437500000001 27  31.875 27  L 3.125 27  C 2.265625 27  1.5299479166666667 26.69957386363636  0.91796875 26.098721590909093  C 0.3059895833333333 25.49786931818182  0 24.77556818181818  0 23.93181818181818  L 0 3.0681818181818183  C 0 2.2244318181818183  0.3059895833333333 1.5021306818181794  0.91796875 0.9012784090909077  C 1.5299479166666667 0.3004261363636329  2.265625 0  3.125 0  L 31.875 0  C 32.73437500000001 0  33.47005208333334 0.3004261363636329  34.08203125 0.9012784090909077  Z " fill-rule="nonzero" fill="#000000" stroke="none" transform="matrix(1 0 0 1 67 68 )" />
  </g>
</svg>