<?xml version="1.0" encoding="utf-8"?>
<svg version="1.1" xmlns:xlink="http://www.w3.org/1999/xlink" width="50px" height="50px" xmlns="http://www.w3.org/2000/svg">
  <g transform="matrix(1 0 0 1 -67 -165 )">
    <path d="M 40.541294642857146 25.125558035714285  C 40.78311011904762 25.15345982142857  40.97842261904762 25.269717261904763  41.127232142857146 25.47433035714286  L 42.215401785714285 26.89732142857143  C 42.36421130952381 27.101934523809522  42.42466517857143 27.320498511904763  42.396763392857146 27.55301339285714  C 42.368861607142854 27.785528273809522  42.26190476190476 27.976190476190478  42.075892857142854 28.125  C 41.27604166666667 28.757440476190478  40.09951636904762 29.67354910714286  38.546316964285715 30.87332589285714  C 36.99311755952381 32.07310267857143  35.630580357142854 33.12406994047619  34.458705357142854 34.02622767857143  C 33.286830357142854 34.928385416666664  32.663690476190474 35.40736607142857  32.589285714285715 35.46316964285714  C 31.863839285714285 36.058407738095234  31.30580357142857 36.50483630952381  30.91517857142857 36.80245535714286  C 30.52455357142857 37.1000744047619  29.961867559523814 37.48139880952381  29.227120535714285 37.94642857142857  C 28.492373511904763 38.411458333333336  27.780877976190478 38.75093005952381  27.09263392857143 38.96484375  C 26.404389880952383 39.17875744047619  25.716145833333336 39.285714285714285  25.027901785714285 39.285714285714285  L 25 39.285714285714285  L 24.972098214285715 39.285714285714285  C 24.28385416666667 39.285714285714285  23.59561011904762 39.17875744047619  22.907366071428573 38.96484375  C 22.219122023809526 38.75093005952381  21.512276785714285 38.411458333333336  20.786830357142858 37.94642857142857  C 20.061383928571427 37.48139880952381  19.49404761904762 37.09542410714286  19.084821428571427 36.788504464285715  C 18.675595238095237 36.48158482142857  18.117559523809526 36.039806547619044  17.410714285714285 35.46316964285714  C 17.317708333333336 35.38876488095238  16.713169642857142 34.91908482142857  15.597098214285715 34.054129464285715  C 14.481026785714285 33.18917410714286  13.146391369047619 32.156808035714285  11.593191964285714 30.95703125  C 10.03999255952381 29.757254464285715  8.900669642857142 28.878348214285715  8.175223214285714 28.3203125  C 7.9706101190476195 28.171502976190478  7.854352678571429 27.980840773809522  7.826450892857142 27.74832589285714  C 7.798549107142858 27.515811011904763  7.859002976190476 27.297247023809522  8.0078125 27.09263392857143  L 9.040178571428571 25.64174107142857  C 9.188988095238097 25.437127976190478  9.388950892857142 25.316220238095234  9.640066964285714 25.27901785714286  C 9.891183035714286 25.241815476190478  10.119047619047619 25.30691964285714  10.323660714285714 25.47433035714286  C 12.072172619047619 26.832217261904763  14.918154761904765 29.027157738095234  18.861607142857142 32.059151785714285  C 18.954613095238095 32.133556547619044  19.359188988095237 32.45907738095238  20.075334821428573 33.035714285714285  C 20.791480654761905 33.61235119047619  21.354166666666668 34.04482886904761  21.763392857142858 34.33314732142857  C 22.17261904761905 34.621465773809526  22.698102678571427 34.92373511904761  23.33984375 35.23995535714286  C 23.981584821428573 35.556175595238095  24.525669642857142 35.714285714285715  24.972098214285715 35.714285714285715  L 25 35.714285714285715  L 25.027901785714285 35.714285714285715  C 25.47433035714286 35.714285714285715  26.01841517857143 35.556175595238095  26.66015625 35.23995535714286  C 27.301897321428577 34.92373511904761  27.82738095238096 34.621465773809526  28.236607142857146 34.33314732142857  C 28.645833333333336 34.04482886904761  29.2085193452381 33.61235119047619  29.92466517857143 33.035714285714285  C 30.640811011904763 32.45907738095238  31.045386904761905 32.133556547619044  31.138392857142854 32.059151785714285  C 35.9375 28.37611607142857  38.84858630952381 26.125372023809522  39.871651785714285 25.30691964285714  C 40.07626488095239 25.158110119047617  40.29947916666667 25.09765625  40.541294642857146 25.125558035714285  Z M 46.163504464285715 46.163504464285715  C 46.340215773809526 45.986793154761905  46.42857142857143 45.77752976190476  46 45.535714285714285  L 46 19.642857142857146  C 44.754464285714285 18.098958333333332  43.275669642857146 16.806175595238095  41.9921875 15.76450892857143  C 40.29947916666667 14.388020833333332  36.68154761904762 11.560639880952378  31.138392857142854 7.282366071428569  C 31.082589285714285 7.245163690476186  30.682663690476193 6.919642857142855  29.93861607142857 6.305803571428569  C 29.19456845238096 5.691964285714285  28.627232142857146 5.245535714285715  28.236607142857146 4.966517857142855  C 27.845982142857146 4.6875  27.325148809523807 4.3852306547619015  26.674107142857146 4.059709821428569  C 26.023065476190478 3.734188988095238  25.47433035714286 3.57142857142857  25.027901785714285 3.57142857142857  L 25 3.57142857142857  L 24.972098214285715 3.57142857142857  C 24.525669642857142 3.57142857142857  23.976934523809526 3.734188988095238  23.325892857142858 4.059709821428569  C 22.674851190476193 4.3852306547619015  22.15401785714286 4.6875  21.763392857142858 4.966517857142855  C 21.372767857142858 5.245535714285715  20.80543154761905 5.691964285714285  20.061383928571427 6.305803571428569  C 19.31733630952381 6.919642857142855  18.917410714285715 7.245163690476186  18.861607142857142 7.282366071428569  C 14.862351190476192 10.370163690476186  11.928013392857142 12.65345982142857  10.05859375 14.132254464285715  C 8.189174107142858 15.611049107142854  6.984747023809525 16.578311011904756  6.4453125 17.03404017857143  C 5.905877976190476 17.489769345238095  5.143229166666667 18.182663690476186  4.157366071428571 19.112723214285715  C 3.8969494047619055 19.3359375  3.7016369047619055 19.512648809523807  4 19.642857142857146  L 4 45.535714285714285  C 3.571428571428571 45.77752976190476  3.6597842261904767 45.986793154761905  3.8364955357142856 46.163504464285715  C 4.013206845238095 46.340215773809526  4.222470238095238 46.42857142857143  4.464285714285714 46  L 45.535714285714285 46  C 45.77752976190476 46.42857142857143  45.986793154761905 46.340215773809526  46.163504464285715 46.163504464285715  Z M 48.856026785714285 17.020089285714285  C 49.6186755952381 17.726934523809522  50 18.60119047619047  50 19.642857142857146  L 50 45.535714285714285  C 50 46.763392857142854  49.562872023809526 47.81436011904762  48.68861607142857 48.68861607142857  C 47.81436011904763 49.562872023809526  46.76339285714287 50  45.535714285714285 50  L 4.464285714285714 50  C 3.2366071428571432 50  2.1856398809523814 49.562872023809526  1.3113839285714286 48.68861607142857  C 0.4371279761904762 47.81436011904762  0 46.763392857142854  0 45.535714285714285  L 0 19.642857142857146  C 0 18.60119047619047  0.38132440476190477 17.726934523809522  1.1439732142857142 17.020089285714285  C 3.4319196428571432 14.89955357142857  6.687127976190475 12.197730654761902  10.909598214285714 8.914620535714285  C 15.132068452380953 5.6315104166666625  17.299107142857142 3.943452380952378  17.410714285714285 3.85044642857143  C 18.080357142857142 3.2924107142857153  18.629092261904763 2.8506324404761862  19.056919642857142 2.525111607142855  C 19.484747023809526 2.1995907738095233  20.05673363095238 1.8089657738095233  20.772879464285715 1.3532366071428548  C 21.48902529761905 0.8975074404761862  22.19587053571429 0.5580357142857151  22.893415178571427 0.33482142857143016  C 23.590959821428577 0.11160714285714524  24.28385416666667 0  24.972098214285715 0  L 25 0  L 25.027901785714285 0  C 25.716145833333336 0  26.40904017857143 0.11160714285714524  27.10658482142857 0.33482142857143016  C 27.804129464285715 0.5580357142857151  28.510974702380953 0.8975074404761862  29.227120535714285 1.3532366071428548  C 29.94326636904762 1.8089657738095233  30.515252976190478 2.1995907738095233  30.943080357142854 2.525111607142855  C 31.370907738095244 2.8506324404761862  31.919642857142854 3.2924107142857153  32.589285714285715 3.85044642857143  C 33.389136904761905 4.520089285714285  34.84002976190476 5.6547619047619015  36.941964285714285 7.254464285714285  C 39.04389880952381 8.854166666666663  41.145833333333336 10.500372023809524  43.247767857142854 12.193080357142854  C 45.34970238095239 13.885788690476186  47.219122023809526 15.494791666666663  48.856026785714285 17.020089285714285  Z " fill-rule="nonzero" fill="#000000" stroke="none" transform="matrix(1 0 0 1 67 165 )" />
  </g>
</svg>