<?xml version="1.0" encoding="utf-8"?>
<svg version="1.1" xmlns:xlink="http://www.w3.org/1999/xlink" width="86px" height="86px" xmlns="http://www.w3.org/2000/svg">
  <g transform="matrix(1 0 0 1 -140 -52 )">
    <path d="M 81.61224489795919 17.18880208333333  C 82.9199679871949 17.74869791666667  83.93517406962785 18.55121527777777  84.6578631452581 19.59635416666667  C 86.0344137655062 21.72395833333333  86.34413765506203 24.13151041666667  85.58703481392557 26.81901041666667  L 71.39135654261705 77.54557291666667  C 70.7374949979992 79.93446180555556  69.42116846738696 81.94075520833333  67.44237695078031 83.564453125  C 65.46358543417368 85.18815104166667  63.35574229691877 86  61.11884753901561 86  L 13.472989195678272 86  C 10.82312925170068 86  8.267907162865148 85.00151909722223  5.807322929171669 83.00455729166667  C 3.3467386954781917 81.00759548611111  1.6346538615446182 78.55338541666667  0.6710684273709484 75.64192708333333  C -0.15486194477791115 73.14105902777777  -0.18927571028411366 70.77083333333333  0.5678271308523409 68.53125  C 0.5678271308523409 68.38194444444444  0.6194477791116446 67.87803819444444  0.7226890756302521 67.01953125  C 0.8259303721488594 66.16102430555556  0.8947579031612646 65.47048611111111  0.929171668667467 64.94791666666667  C 0.9635854341736695 64.64930555555556  0.9119647859143658 64.248046875  0.7743097238895558 63.744140625  C 0.636654661864746 63.240234375  0.5850340136054423 62.87630208333334  0.6194477791116446 62.65234375  C 0.6882753101240496 62.24175347222222  0.8259303721488594 61.84982638888888  1.0324129651860745 61.4765625  C 1.2388955582232892 61.1032986111111  1.5228091236494596 60.66471354166666  1.884153661464586 60.16080729166666  C 2.245498199279712 59.65690104166666  2.5294117647058822 59.21831597222222  2.735894357743097 58.84505208333334  C 3.527410964385755 57.42664930555554  4.30172068827531 55.71896701388888  5.0588235294117645 53.72200520833334  C 5.81592637054822 51.72504340277778  6.332132853141257 50.0173611111111  6.607442977190876 48.59895833333334  C 6.710684273709483 48.22569444444444  6.719287715086035 47.6657986111111  6.633253301320528 46.91927083333334  C 6.547218887555023 46.17274305555556  6.538615446178471 45.6501736111111  6.607442977190876 45.3515625  C 6.710684273709483 44.94097222222222  7.003201280512206 44.41840277777778  7.48499399759904 43.78385416666666  C 7.966786714685874 43.14930555555556  8.259303721488596 42.72005208333333  8.362545018007204 42.49609375  C 9.085234093637455 41.15234375  9.807923169267706 39.43532986111111  10.53061224489796 37.34505208333333  C 11.25330132052821 35.25477430555555  11.683473389355743 33.57508680555555  11.821128451380552 32.30598958333333  C 11.855542216886754 31.97005208333333  11.812525010004002 31.37282986111111  11.692076830732294 30.51432291666667  C 11.571628651460586 29.65581597222222  11.580232092837136 29.13324652777777  11.717887154861945 28.94661458333333  C 11.855542216886754 28.46137152777777  12.234093637454983 27.89214409722221  12.853541416566626 27.23893229166667  C 13.472989195678272 26.58572048611111  13.8515406162465 26.16579861111111  13.989195678271308 25.97916666666667  C 14.643057222889157 25.00868055555555  15.37434973989596 23.431640625  16.18307322929172 21.248046875  C 16.991796718687475 19.064453125  17.46498599439776 17.26345486111111  17.60264105642257 15.84505208333333  C 17.63705482192877 15.54644097222221  17.58543417366947 15.07052951388888  17.447779111644657 14.41731770833333  C 17.310124049619848 13.76410590277777  17.275710284113647 13.26953125  17.34453781512605 12.93359375  C 17.413365346138455 12.63498263888888  17.56822729091637 12.29904513888888  17.80912364945978 11.92578125  C 18.0500200080032 11.55251736111111  18.359743897559024 11.12326388888888  18.73829531812725 10.63802083333333  C 19.11684673869548 10.15277777777777  19.4093637454982 9.76085069444444  19.615846338535412 9.46223958333333  C 19.891156462585037 9.01432291666667  20.175070028011206 8.44509548611111  20.467587034813924 7.75455729166667  C 20.760104041616646 7.064019097222211  21.018207282913167 6.41080729166667  21.24189675870348 5.794921875  C 21.4655862344938 5.17903645833333  21.74089635854342 4.50716145833333  22.06782713085234 3.779296875  C 22.394757903161267 3.0514322916666696  22.73029211684674 2.45421006944444  23.07442977190876 1.9876302083333302  C 23.418567426970792 1.5210503472222106  23.874549819927974 1.0824652777777704  24.442376950780314 0.671875  C 25.010204081632658 0.26128472222221055  25.6296518607443 0.04665798611111005  26.300720288115247 0.02799479166666985  C 26.971788715486195 0.009331597222210553  27.789115646258505 0.11197916666666985  28.75270108043217 0.3359375  L 28.701080432172873 0.50390625  C 30.008803521408563 0.16796875  30.88635454181673 0  31.33373349339736 0  L 70.61704681872749 0  C 73.16366546618649 0  75.12525010004002 1.0451388888888804  76.50180072028812 3.1354166666666696  C 77.87835134053623 5.22569444444444  78.18807523009204 7.651909722222211  77.43097238895558 10.4140625  L 63.28691476590636 61.140625  C 62.04801920768307 65.58246527777777  60.81772709083634 68.447265625  59.59603841536615 69.73502604166667  C 58.37434973989597 71.02278645833333  56.16326530612245 71.66666666666667  52.962785114045616 71  L 8.104441776710685 71  C 7.175270108043218 71.66666666666667  6.5214085634253705 71.94661458333333  6.142857142857142 72.50651041666667  C 5.764305722288916 73.10373263888889  5.7470988395358145 73.90625  6.091236494597839 74.9140625  C 6.917166866746698 77.52690972222223  9.394957983193278 78.83333333333333  13.524609843937574 78  L 61.170468187274906 78  C 62.16846738695479 78.83333333333333  63.132052821128454 78.54405381944444  64.06122448979592 77.96549479166667  C 64.99039615846338 77.38693576388889  65.59263705482194 76.61241319444444  65.86794717887155 75.64192708333333  L 81.35414165666266 20.38020833333333  C 81.59503801520609 19.55902777777777  81.68107242897159 18.49522569444444  81.61224489795919 17.18880208333333  Z M 30.81752701080432 16.125  L 29.733493397358945 19.70833333333333  C 29.595838335334133 20.19357638888888  29.630252100840337 20.61349826388888  29.83673469387755 20.96809895833333  C 30.043217286914764 21.32269965277777  30.387354941976795 21.5  30.869147659063625 22  L 62.25450180072029 22  C 62.70188075230092 21.5  63.140656262505004 21.32269965277777  63.57082833133253 20.96809895833333  C 64.00100040016007 20.61349826388888  64.28491396558624 20.19357638888888  64.42256902761105 19.70833333333333  L 65.50660264105642 16.125  C 65.64425770308124 15.63975694444444  65.60984393757504 15.21983506944444  65.40336134453781 14.865234375  C 65.1968787515006 14.51063368055555  64.85274109643859 14.33333333333333  64.37094837935174 15  L 32.985594237695075 15  C 32.53821528611444 14.33333333333333  32.09943977591036 14.51063368055555  31.66926770708283 14.865234375  C 31.239095638255304 15.21983506944444  30.955182072829135 15.63975694444444  30.81752701080432 16.125  Z M 26.533013205282113 30.45833333333333  L 25.448979591836736 34.04166666666667  C 25.311324529811927 34.52690972222222  25.345738295318128 34.94683159722222  25.552220888355343 35.30143229166667  C 25.75870348139256 35.65603298611111  26.10284113645458 35.83333333333333  26.58463385354142 36  L 57.969987995198075 36  C 58.417366946778714 35.83333333333333  58.8561424569828 35.65603298611111  59.28631452581032 35.30143229166667  C 59.716486594637864 34.94683159722222  60.00040016006403 34.52690972222222  60.13805522208884 34.04166666666667  L 61.22208883553421 30.45833333333333  C 61.35974389755903 29.97309027777777  61.32533013205282 29.55316840277777  61.11884753901561 29.19856770833333  C 60.91236494597839 28.84396701388889  60.568227290916376 28.66666666666667  60.08643457382953 29  L 28.701080432172873 29  C 28.25370148059224 28.66666666666667  27.81492597038816 28.84396701388889  27.384753901560625 29.19856770833333  C 26.954581832733098 29.55316840277777  26.670668267306926 29.97309027777777  26.533013205282113 30.45833333333333  Z " fill-rule="nonzero" fill="#f59a23" stroke="none" fill-opacity="0.7843137254901961" transform="matrix(1 0 0 1 140 52 )" />
  </g>
</svg>