<?xml version="1.0" encoding="utf-8"?>
<svg version="1.1" xmlns:xlink="http://www.w3.org/1999/xlink" width="57px" height="60px" xmlns="http://www.w3.org/2000/svg">
  <g transform="matrix(1 0 0 1 -283 -65 )">
    <path d="M 54.09183673469388 11.992187499999998  C 54.958583433373356 12.382812500000002  55.63145258103241 12.942708333333329  56.11044417767107 13.671875000000002  C 57.02280912364946 15.156249999999998  57.2280912364946 16.835937500000004  56.72629051620648 18.710937500000004  L 47.31752701080432 54.1015625  C 46.884153661464595 55.76822916666667  46.01170468187275 57.16796875  44.700180072028814 58.30078125  C 43.38865546218488 59.43359375  41.991596638655466 60  40.509003601440575 60  L 8.929771908763506 60  C 7.173469387755102 60  5.479891956782714 59.30338541666667  3.8490396158463387 57.91015625  C 2.2181872749099645 56.516927083333336  1.08343337334934 54.8046875  0.4447779111644658 52.7734375  C -0.10264105642256903 51.02864583333333  -0.12545018007202882 49.375  0.37635054021608644 47.8125  C 0.37635054021608644 47.70833333333333  0.4105642256902761 47.35677083333333  0.4789915966386554 46.7578125  C 0.5474189675870348 46.158854166666664  0.5930372148859545 45.677083333333336  0.6158463385354143 45.3125  C 0.6386554621848739 45.10416666666667  0.6044417767106843 44.82421875  0.5132052821128451 44.47265625  C 0.42196878751500605 44.12109375  0.38775510204081637 43.86718750000001  0.4105642256902761 43.7109375  C 0.4561824729891957 43.424479166666664  0.5474189675870348 43.15104166666666  0.6842737094837935 42.890625  C 0.8211284513805522 42.63020833333333  1.0093037214885954 42.32421874999999  1.2487995198079234 41.97265624999999  C 1.488295318127251 41.62109374999999  1.6764705882352942 41.315104166666664  1.8133253301320527 41.05468750000001  C 2.3379351740696284 40.06510416666666  2.851140456182473 38.87369791666666  3.3529411764705883 37.48046875000001  C 3.8547418967587035 36.087239583333336  4.1968787515006 34.89583333333333  4.379351740696278 33.90625000000001  C 4.447779111644658 33.64583333333333  4.453481392557023 33.25520833333333  4.396458583433374 32.73437500000001  C 4.339435774309725 32.21354166666667  4.333733493397359 31.848958333333325  4.379351740696278 31.640625  C 4.447779111644658 31.354166666666664  4.641656662665067 30.989583333333336  4.960984393757504 30.546874999999996  C 5.28031212484994 30.10416666666667  5.474189675870348 29.804687499999996  5.5426170468187275 29.6484375  C 6.021608643457383 28.7109375  6.5006002400960385 27.513020833333332  6.979591836734694 26.054687499999996  C 7.458583433373349 24.596354166666664  7.7436974789915975 23.424479166666664  7.834933973589436 22.539062499999996  C 7.857743097238895 22.304687499999996  7.82923169267707 21.888020833333332  7.7493997599039615 21.289062500000004  C 7.6695678271308525 20.690104166666664  7.675270108043218 20.32552083333333  7.766506602641057 20.195312499999996  C 7.857743097238895 19.85677083333333  8.108643457382954 19.459635416666657  8.51920768307323 19.003906250000004  C 8.929771908763506 18.548177083333332  9.180672268907564 18.255208333333332  9.271908763505403 18.125000000000004  C 9.70528211284514 17.447916666666664  10.18997599039616 16.34765625  10.725990396158464 14.82421875  C 11.262004801920769 13.30078125  11.575630252100842 12.044270833333332  11.666866746698679 11.054687499999998  C 11.68967587034814 10.846354166666659  11.65546218487395 10.51432291666666  11.56422569027611 10.058593749999998  C 11.472989195678272 9.602864583333329  11.450180072028813 9.2578125  11.495798319327731 9.0234375  C 11.541416566626651 8.81510416666666  11.644057623049221 8.58072916666666  11.803721488595437 8.3203125  C 11.963385354141657 8.059895833333332  12.168667466986795 7.760416666666661  12.419567827130852 7.421874999999998  C 12.670468187274912 7.083333333333329  12.864345738295318 6.80989583333333  13.001200480192077 6.601562499999998  C 13.183673469387758 6.289062500000002  13.3718487394958 5.891927083333332  13.565726290516206 5.410156250000002  C 13.759603841536615 4.928385416666659  13.930672268907564 4.472656250000002  14.07893157262905 4.04296875  C 14.22719087635054 3.613281249999998  14.409663865546221 3.144531249999998  14.626350540216086 2.63671875  C 14.843037214885957 2.128906250000002  15.065426170468188 1.7122395833333304  15.293517406962783 1.3867187499999978  C 15.521608643457386 1.0611979166666585  15.823829531812727 0.7552083333333282  16.20018007202881 0.46875  C 16.576530612244902 0.18229166666665853  16.987094837935178 0.03255208333333259  17.43187274909964 0.01953125000000222  C 17.876650660264108 0.006510416666658525  18.418367346938776 0.07812500000000222  19.057022809123648 0.234375  L 19.022809123649463 0.3515625  C 19.889555822328933 0.1171875  20.471188475390157 0  20.767707082833134 0  L 46.80432172869148 0  C 48.49219687875151 0  49.79231692677071 0.7291666666666607  50.7046818727491 2.187500000000002  C 51.617046818727495 3.6458333333333304  51.822328931572635 5.338541666666659  51.32052821128452 7.265625  L 41.94597839135654 42.65625  C 41.12484993997599 45.75520833333333  40.30942376950781 47.75390625  39.49969987995198 48.65234375  C 38.689975990396164 49.55078125  37.224489795918366 50  35.103241296518604 50  L 5.371548619447779 50  C 4.755702280912366 50  4.322328931572629 50.1953125  4.071428571428571 50.5859375  C 3.820528211284514 51.002604166666664  3.809123649459784 51.5625  4.0372148859543815 52.265625  C 4.584633853541416 54.08854166666667  6.226890756302521 55  8.963985594237695 55  L 40.54321728691476 55  C 41.204681872749106 55  41.84333733493398 54.79817708333333  42.45918367346939 54.39453125  C 43.0750300120048 53.990885416666664  43.47418967587035 53.45052083333333  43.65666266506602 52.7734375  L 53.92076830732293 14.218749999999998  C 54.08043217286915 13.645833333333329  54.137454981992796 12.90364583333333  54.09183673469388 11.992187499999998  Z M 20.425570228091235 11.25  L 19.707082833133256 13.749999999999998  C 19.615846338535416 14.08854166666666  19.638655462184875 14.38151041666666  19.775510204081634 14.628906249999998  C 19.912364945978393 14.876302083333329  20.14045618247299 15  20.459783913565424 15  L 41.26170468187275 15  C 41.55822328931573 15  41.84903961584634 14.876302083333329  42.13415366146459 14.628906249999998  C 42.41926770708284 14.38151041666666  42.60744297719088 14.08854166666666  42.698679471788715 13.749999999999998  L 43.4171668667467 11.25  C 43.50840336134454 10.91145833333333  43.48559423769508 10.61848958333333  43.34873949579832 10.37109375  C 43.211884753901565 10.123697916666663  42.983793517406966 9.999999999999998  42.66446578631453 10  L 21.862545018007204 10  C 21.566026410564227 9.999999999999998  21.275210084033613 10.123697916666663  20.990096038415366 10.37109375  C 20.70498199279712 10.61848958333333  20.51680672268908 10.91145833333333  20.425570228091235 11.25  Z M 17.585834333733494 21.249999999999996  L 16.86734693877551 23.750000000000004  C 16.77611044417767 24.088541666666664  16.79891956782713 24.381510416666664  16.93577430972389 24.628906250000004  C 17.07262905162065 24.876302083333332  17.300720288115244 24.999999999999996  17.620048019207683 25  L 38.421968787515006 25  C 38.71848739495798 24.999999999999996  39.0093037214886 24.876302083333332  39.29441776710684 24.628906250000004  C 39.5795318127251 24.381510416666664  39.767707082833134 24.088541666666664  39.85894357743097 23.750000000000004  L 40.57743097238895 21.249999999999996  C 40.6686674669868 20.91145833333333  40.64585834333734 20.61848958333333  40.509003601440575 20.371093749999996  C 40.37214885954382 20.123697916666668  40.14405762304922 20.000000000000004  39.824729891956785 20  L 19.022809123649463 20  C 18.726290516206486 20.000000000000004  18.435474189675872 20.123697916666668  18.150360144057622 20.371093749999996  C 17.86524609843938 20.61848958333333  17.677070828331335 20.91145833333333  17.585834333733494 21.249999999999996  Z " fill-rule="nonzero" fill="#f59a23" stroke="none" fill-opacity="0.7843137254901961" transform="matrix(1 0 0 1 283 65 )" />
  </g>
</svg>