<?xml version="1.0" encoding="utf-8"?>
<svg version="1.1" xmlns:xlink="http://www.w3.org/1999/xlink" width="57px" height="60px" xmlns="http://www.w3.org/2000/svg">
  <g transform="matrix(1 0 0 1 -26 -65 )">
    <path d="M 54.091836734693885 11.9921875  C 54.95858343337335 12.3828125  55.63145258103242 12.942708333333329  56.11044417767107 13.671875  C 57.022809123649466 15.156250000000002  57.22809123649461 16.8359375  56.72629051620649 18.7109375  L 47.317527010804326 54.1015625  C 46.884153661464595 55.76822916666667  46.01170468187274 57.16796875  44.700180072028814 58.30078125  C 43.388655462184886 59.43359375  41.991596638655466 60  40.50900360144058 60  L 8.929771908763506 60  C 7.173469387755105 60  5.479891956782716 59.30338541666667  3.8490396158463374 57.91015625  C 2.2181872749099654 56.51692708333334  1.0834333733493402 54.8046875  0.44477791116446497 52.7734375  C -0.10264105642256993 51.02864583333333  -0.12545018007202913 49.375  0.3763505402160874 47.8125  C 0.3763505402160874 47.70833333333333  0.4105642256902762 47.35677083333333  0.47899159663865376 46.7578125  C 0.5474189675870349 46.15885416666666  0.5930372148859533 45.67708333333334  0.6158463385354125 45.3125  C 0.6386554621848752 45.10416666666667  0.6044417767106829 44.82421875  0.5132052821128461 44.47265625  C 0.42196878751500577 44.12109375  0.387755102040817 43.8671875  0.4105642256902762 43.7109375  C 0.4561824729891946 43.42447916666666  0.5474189675870349 43.15104166666666  0.6842737094837936 42.890625  C 0.8211284513805523 42.63020833333333  1.009303721488596 42.32421875  1.2487995198079247 41.97265625  C 1.4882953181272498 41.62109375  1.6764705882352935 41.31510416666666  1.8133253301320524 41.0546875  C 2.337935174069628 40.06510416666666  2.851140456182474 38.87369791666666  3.352941176470587 37.48046875  C 3.8547418967587035 36.08723958333334  4.1968787515005985 34.89583333333333  4.379351740696279 33.90625  C 4.447779111644657 33.64583333333333  4.453481392557023 33.25520833333333  4.396458583433372 32.734375  C 4.339435774309724 32.21354166666667  4.333733493397361 31.848958333333325  4.379351740696279 31.640625  C 4.447779111644657 31.354166666666657  4.641656662665067 30.989583333333343  4.960984393757503 30.546875000000004  C 5.280312124849939 30.10416666666667  5.474189675870349 29.8046875  5.542617046818727 29.6484375  C 6.021608643457384 28.7109375  6.500600240096041 27.51302083333333  6.979591836734691 26.0546875  C 7.458583433373349 24.596354166666657  7.743697478991599 23.424479166666657  7.834933973589436 22.5390625  C 7.857743097238895 22.3046875  7.829231692677069 21.88802083333333  7.749399759903959 21.2890625  C 7.669567827130856 20.690104166666657  7.675270108043222 20.32552083333333  7.7665066026410585 20.1953125  C 7.857743097238895 19.85677083333333  8.108643457382954 19.459635416666657  8.519207683073233 19.00390625  C 8.929771908763506 18.54817708333333  9.180672268907564 18.25520833333333  9.271908763505401 18.125  C 9.70528211284514 17.447916666666657  10.189975990396164 16.34765625  10.725990396158466 14.82421875  C 11.262004801920767 13.30078125  11.575630252100844 12.044270833333329  11.66686674669868 11.0546875  C 11.68967587034814 10.846354166666657  11.655462184873954 10.514322916666657  11.56422569027611 10.05859375  C 11.472989195678274 9.602864583333329  11.450180072028814 9.2578125  11.495798319327733 9.0234375  C 11.541416566626651 8.815104166666657  11.644057623049221 8.580729166666657  11.803721488595436 8.3203125  C 11.963385354141657 8.059895833333329  12.168667466986797 7.760416666666657  12.419567827130848 7.421875  C 12.670468187274913 7.083333333333329  12.86434573829532 6.809895833333329  13.001200480192075 6.6015625  C 13.183673469387756 6.2890625  13.371848739495803 5.891927083333329  13.56572629051621 5.41015625  C 13.759603841536617 4.928385416666657  13.930672268907564 4.47265625  14.078931572629052 4.04296875  C 14.22719087635054 3.61328125  14.409663865546221 3.14453125  14.62635054021609 2.63671875  C 14.843037214885953 2.12890625  15.065426170468184 1.7122395833333286  15.293517406962783 1.38671875  C 15.521608643457382 1.0611979166666572  15.823829531812727 0.7552083333333286  16.200180072028814 0.46875  C 16.576530612244902 0.1822916666666572  16.987094837935174 0.032552083333328596  17.43187274909964 0.01953125  C 17.876650660264104 0.006510416666657193  18.41836734693878 0.078125  19.05702280912365 0.234375  L 19.022809123649466 0.3515625  C 19.88955582232893 0.1171875  20.471188475390157 0  20.767707082833134 0  L 46.80432172869148 0  C 48.492196878751514 0  49.79231692677071 0.7291666666666572  50.70468187274909 2.1875  C 51.61704681872749 3.6458333333333286  51.82232893157263 5.338541666666657  51.32052821128451 7.265625  L 41.94597839135653 42.65625  C 41.12484993997599 45.75520833333333  40.309423769507816 47.75390625  39.499699879951976 48.65234375  C 38.689975990396164 49.55078125  37.224489795918366 50  35.103241296518604 50  L 5.371548619447779 50  C 4.755702280912367 50  4.322328931572628 50.1953125  4.071428571428569 50.5859375  C 3.8205282112845147 51.00260416666666  3.809123649459785 51.5625  4.037214885954381 52.265625  C 4.5846338535414155 54.08854166666667  6.226890756302524 55  8.963985594237698 55  L 40.54321728691477 55  C 41.204681872749106 55  41.84333733493398 54.79817708333333  42.4591836734694 54.39453125  C 43.0750300120048 53.99088541666666  43.47418967587035 53.45052083333333  43.65666266506602 52.7734375  L 53.92076830732293 14.21875  C 54.08043217286915 13.645833333333329  54.13745498199279 12.903645833333329  54.091836734693885 11.9921875  Z M 20.42557022809123 11.25  L 19.707082833133256 13.75  C 19.61584633853542 14.088541666666657  19.63865546218487 14.381510416666657  19.775510204081634 14.62890625  C 19.912364945978396 14.876302083333329  20.140456182472988 15  20.459783913565424 15  L 41.26170468187274 15  C 41.55822328931572 15  41.84903961584634 14.876302083333329  42.13415366146458 14.62890625  C 42.41926770708284 14.381510416666657  42.607442977190885 14.088541666666657  42.69867947178872 13.75  L 43.4171668667467 11.25  C 43.508403361344534 10.911458333333329  43.48559423769508 10.618489583333329  43.34873949579833 10.37109375  C 43.21188475390156 10.123697916666657  42.983793517406966 10  42.66446578631454 10  L 21.862545018007204 10  C 21.566026410564227 10  21.275210084033617 10.123697916666657  20.990096038415366 10.37109375  C 20.704981992797116 10.618489583333329  20.516806722689083 10.911458333333329  20.42557022809123 11.25  Z M 17.585834333733494 21.25  L 16.867346938775512 23.75  C 16.776110444177675 24.088541666666657  16.798919567827127 24.381510416666657  16.93577430972389 24.62890625  C 17.072629051620652 24.87630208333333  17.300720288115244 25  17.620048019207687 25  L 31.794871794871767 25  L 33.076923076923094 25  L 38.421968787515 25  C 38.718487394957975 25  39.00930372148861 24.87630208333333  39.294417767106836 24.62890625  C 39.579531812725094 24.381510416666657  39.76770708283314 24.088541666666657  39.85894357743098 23.75  L 40.57743097238895 21.25  C 40.66866746698679 20.91145833333333  40.64585834333734 20.61848958333333  40.50900360144058 20.37109375  C 40.37214885954381 20.12369791666667  40.14405762304922 20  39.82472989195679 20  L 19.022809123649466 20  C 18.72629051620649 20  18.435474189675872 20.12369791666667  18.150360144057622 20.37109375  C 17.86524609843938 20.61848958333333  17.67707082833134 20.91145833333333  17.585834333733494 21.25  Z " fill-rule="nonzero" fill="#f59a23" stroke="none" fill-opacity="0.7843137254901961" transform="matrix(1 0 0 1 26 65 )" />
  </g>
</svg>