<?xml version="1.0" encoding="utf-8"?>
<svg version="1.1" xmlns:xlink="http://www.w3.org/1999/xlink" width="57px" height="60px" xmlns="http://www.w3.org/2000/svg">
  <g transform="matrix(1 0 0 1 -283 -65 )">
    <path d="M 54.09183673469386 11.9921875  C 54.95858343337335 12.3828125  55.63145258103242 12.942708333333329  56.11044417767107 13.671875  C 57.022809123649445 15.156250000000002  57.22809123649461 16.8359375  56.72629051620646 18.7109375  L 47.317527010804326 54.1015625  C 46.88415366146461 55.76822916666667  46.01170468187274 57.16796875  44.70018007202884 58.30078125  C 43.388655462184886 59.43359375  41.99159663865544 60  40.509003601440554 60  L 8.929771908763485 60  C 7.173469387755119 60  5.479891956782694 59.30338541666667  3.849039615846323 57.91015625  C 2.218187274909951 56.51692708333334  1.0834333733493509 54.8046875  0.44477791116446497 52.7734375  C -0.10264105642255572 51.02864583333333  -0.12545018007205044 49.375  0.3763505402160945 47.8125  C 0.3763505402160945 47.70833333333333  0.4105642256902797 47.35677083333333  0.4789915966386502 46.7578125  C 0.5474189675870207 46.15885416666666  0.5930372148859533 45.67708333333334  0.6158463385353912 45.3125  C 0.6386554621848859 45.10416666666667  0.6044417767107007 44.82421875  0.5132052821128354 44.47265625  C 0.4219687875150271 44.12109375  0.38775510204084185 43.8671875  0.4105642256902797 43.7109375  C 0.45618247298921233 43.42447916666666  0.5474189675870207 43.15104166666666  0.6842737094838185 42.890625  C 0.8211284513805595 42.63020833333333  1.0093037214886067 42.32421875  1.2487995198079034 41.97265625  C 1.488295318127257 41.62109375  1.6764705882353041 41.31510416666666  1.8133253301320453 41.0546875  C 2.337935174069628 40.06510416666666  2.8511404561824634 38.87369791666666  3.3529411764706083 37.48046875  C 3.8547418967586964 36.08723958333334  4.196878751500606 34.89583333333333  4.379351740696279 33.90625  C 4.44777911164465 33.64583333333333  4.453481392557023 33.25520833333333  4.3964585834334 32.734375  C 4.33943577430972 32.21354166666667  4.333733493397347 31.848958333333325  4.379351740696279 31.640625  C 4.44777911164465 31.354166666666657  4.641656662665071 30.989583333333343  4.960984393757485 30.546875000000004  C 5.2803121248499565 30.10416666666667  5.474189675870321 29.8046875  5.542617046818748 29.6484375  C 6.021608643457398 28.7109375  6.500600240096048 27.51302083333333  6.9795918367346985 26.0546875  C 7.458583433373349 24.596354166666657  7.743697478991579 23.424479166666657  7.834933973589442 22.5390625  C 7.857743097238881 22.3046875  7.829231692677069 21.88802083333333  7.749399759903952 21.2890625  C 7.669567827130834 20.690104166666657  7.6752701080432075 20.32552083333333  7.766506602641073 20.1953125  C 7.857743097238881 19.85677083333333  8.108643457382982 19.459635416666657  8.519207683073205 19.00390625  C 8.929771908763485 18.54817708333333  9.180672268907585 18.25520833333333  9.271908763505394 18.125  C 9.705282112845111 17.447916666666657  10.189975990396135 16.34765625  10.725990396158466 14.82421875  C 11.262004801920796 13.30078125  11.575630252100837 12.044270833333329  11.666866746698702 11.0546875  C 11.68967587034814 10.846354166666657  11.655462184873954 10.514322916666657  11.56422569027609 10.05859375  C 11.47298919567828 9.602864583333329  11.450180072028786 9.2578125  11.495798319327719 9.0234375  C 11.541416566626651 8.815104166666657  11.644057623049207 8.580729166666657  11.803721488595443 8.3203125  C 11.963385354141678 8.059895833333329  12.16866746698679 7.760416666666657  12.419567827130834 7.421875  C 12.670468187274935 7.083333333333329  12.864345738295299 6.809895833333329  13.001200480192097 6.6015625  C 13.18367346938777 6.2890625  13.371848739495817 5.891927083333329  13.565726290516182 5.41015625  C 13.759603841536602 4.928385416666657  13.930672268907585 4.47265625  14.078931572629074 4.04296875  C 14.227190876350562 3.61328125  14.409663865546237 3.14453125  14.626350540216094 2.63671875  C 14.843037214885953 2.12890625  15.065426170468184 1.7122395833333286  15.293517406962794 1.38671875  C 15.521608643457398 1.0611979166666572  15.823829531812748 0.7552083333333286  16.200180072028786 0.46875  C 16.57653061224488 0.1822916666666572  16.98709483793516 0.032552083333328596  17.431872749099625 0.01953125  C 17.87665066026409 0.006510416666657193  18.418367346938794 0.078125  19.057022809123623 0.234375  L 19.022809123649438 0.3515625  C 19.88955582232893 0.1171875  20.471188475390136 0  20.767707082833113 0  L 46.80432172869149 0  C 48.492196878751486 0  49.792316926770695 0.7291666666666572  50.70468187274912 2.1875  C 51.61704681872749 3.6458333333333286  51.822328931572656 5.338541666666657  51.32052821128451 7.265625  L 41.94597839135656 42.65625  C 41.124849939976 45.75520833333333  40.309423769507816 47.75390625  39.499699879952004 48.65234375  C 38.68997599039619 49.55078125  37.22448979591837 50  35.103241296518604 50  L 5.371548619447765 50  C 4.755702280912374 50  4.322328931572656 50.1953125  4.071428571428555 50.5859375  C 3.8205282112845116 51.00260416666666  3.809123649459764 51.5625  4.03721488595437 52.265625  C 4.584633853541391 54.08854166666667  6.2268907563025095 55  8.96398559423767 55  L 40.54321728691474 55  C 41.20468187274912 55  41.84333733493395 54.79817708333333  42.4591836734694 54.39453125  C 43.07503001200479 53.99088541666666  43.47418967587032 53.45052083333333  43.65666266506605 52.7734375  L 53.92076830732293 14.21875  C 54.080432172869166 13.645833333333329  54.13745498199279 12.903645833333329  54.09183673469386 11.9921875  Z M 20.42557022809126 11.25  L 19.707082833133256 13.75  C 19.61584633853539 14.088541666666657  19.638655462184886 14.381510416666657  19.775510204081627 14.62890625  C 19.912364945978368 14.876302083333329  20.140456182472974 15  20.459783913565445 15  L 41.26170468187274 15  C 41.55822328931572 15  41.84903961584632 14.876302083333329  42.13415366146461 14.62890625  C 42.41926770708284 14.381510416666657  42.607442977190885 14.088541666666657  42.698679471788694 13.75  L 43.4171668667467 11.25  C 43.50840336134456 10.911458333333329  43.48559423769507 10.618489583333329  43.34873949579833 10.37109375  C 43.211884753901586 10.123697916666657  42.98379351740698 10  42.66446578631451 10  L 21.86254501800721 10  C 21.566026410564234 10  21.27521008403363 10.123697916666657  20.990096038415345 10.37109375  C 20.704981992797116 10.618489583333329  20.51680672268907 10.911458333333329  20.42557022809126 11.25  Z M 17.585834333733487 21.25  L 16.867346938775484 23.75  C 16.776110444177675 24.088541666666657  16.798919567827113 24.381510416666657  16.93577430972391 24.62890625  C 17.072629051620652 24.87630208333333  17.300720288115258 25  17.620048019207672 25  L 30.22222222222217 25  L 38.42196878751503 25  C 38.718487394958004 25  39.00930372148861 24.87630208333333  39.294417767106836 24.62890625  C 39.57953181272512 24.381510416666657  39.76770708283311 24.088541666666657  39.85894357743098 23.75  L 40.577430972388925 21.25  C 40.66866746698679 20.91145833333333  40.64585834333735 20.61848958333333  40.509003601440554 20.37109375  C 40.37214885954381 20.12369791666667  40.14405762304921 20  39.82472989195679 20  L 19.022809123649438 20  C 18.72629051620646 20  18.43547418967586 20.12369791666667  18.15036014405763 20.37109375  C 17.8652460984394 20.61848958333333  17.677070828331352 20.91145833333333  17.585834333733487 21.25  Z " fill-rule="nonzero" fill="#f59a23" stroke="none" fill-opacity="0.7843137254901961" transform="matrix(1 0 0 1 283 65 )" />
  </g>
</svg>