<?xml version="1.0" encoding="utf-8"?>
<svg version="1.1" xmlns:xlink="http://www.w3.org/1999/xlink" width="115px" height="41px" xmlns="http://www.w3.org/2000/svg">
  <defs>
    <radialGradient cx="422.50000000000045" cy="317.4999999999999" r="53.029829545455016" gradientTransform="matrix(-1 0 -0 -0.30857418369806405 845.0000000000009 415.47230332413517 )" gradientUnits="userSpaceOnUse" id="RadialGradient60">
      <stop id="Stop61" stop-color="#a36717" offset="0" />
      <stop id="Stop62" stop-color="#ee9b1d" offset="0.52" />
      <stop id="Stop63" stop-color="#e69d30" offset="1" />
    </radialGradient>
    <filter x="365px" y="297px" width="115px" height="41px" filterUnits="userSpaceOnUse" id="filter64">
      <feOffset dx="0" dy="0" in="SourceAlpha" result="shadowOffsetInner" />
      <feGaussianBlur stdDeviation="1" in="shadowOffsetInner" result="shadowGaussian" />
      <feComposite in2="shadowGaussian" operator="atop" in="SourceAlpha" result="shadowComposite" />
      <feColorMatrix type="matrix" values="0 0 0 0 0.09019607843137255  0 0 0 0 0.08627450980392157  0 0 0 0 0.08627450980392157  0 0 0 0.34901960784313724 0  " in="shadowComposite" />
    </filter>
    <g id="widget65">
      <path d="M 370.5 310  A 7.5 7.5 0 0 1 378 302.5 L 467 302.5  A 7.5 7.5 0 0 1 474.5 310 L 474.5 325  A 7.5 7.5 0 0 1 467 332.5 L 378 332.5  A 7.5 7.5 0 0 1 370.5 325 L 370.5 310  Z " fill-rule="nonzero" fill="#50a5d5" stroke="none" />
      <path d="M 369 310  A 9 9 0 0 1 378 301 L 467 301  A 9 9 0 0 1 476 310 L 476 325  A 9 9 0 0 1 467 334 L 378 334  A 9 9 0 0 1 369 325 L 369 310  Z " stroke-width="4" stroke="url(#RadialGradient60)" fill="none" />
    </g>
  </defs>
  <g transform="matrix(1 0 0 1 -365 -297 )">
    <use xlink:href="#widget65" filter="url(#filter64)" />
    <use xlink:href="#widget65" />
  </g>
</svg>