<?xml version="1.0" encoding="utf-8"?>
<svg version="1.1" xmlns:xlink="http://www.w3.org/1999/xlink" width="19px" height="20px" xmlns="http://www.w3.org/2000/svg">
  <g transform="matrix(1 0 0 1 -808 -356 )">
    <path d="M 18.37326388888889 9.12109375  C 18.791087962962965 9.368489583333332  19 9.661458333333332  19 10  C 19 10.338541666666664  18.791087962962965 10.631510416666664  18.37326388888889 10.87890625  L 3.595486111111111 19.62890625  C 3.177662037037037 19.876302083333332  2.6828703703703707 20  2.111111111111111 20  C 1.539351851851852 20  1.0445601851851851 19.876302083333332  0.6267361111111112 19.62890625  C 0.20891203703703703 19.381510416666664  0 19.088541666666664  0 18.75  L 0 1.25  C 0 0.9114583333333304  0.20891203703703703 0.6184895833333304  0.6267361111111112 0.37109375  C 1.0445601851851851 0.12369791666666519  1.539351851851852 0  2.111111111111111 0  C 2.6828703703703707 0  3.177662037037037 0.12369791666666519  3.595486111111111 0.37109375  L 18.37326388888889 9.12109375  Z " fill-rule="nonzero" fill="#333333" stroke="none" transform="matrix(1 0 0 1 808 356 )" />
  </g>
</svg>