<?xml version="1.0" encoding="utf-8"?>
<svg version="1.1" xmlns:xlink="http://www.w3.org/1999/xlink" width="19px" height="20px" xmlns="http://www.w3.org/2000/svg">
  <g transform="matrix(1 0 0 1 -780 -356 )">
    <path d="M 18.37326388888889 0.37109375  C 18.791087962962965 0.6184895833333304  19 0.9114583333333304  19 1.25  L 19 18.75  C 19 19.088541666666664  18.791087962962965 19.381510416666664  18.37326388888889 19.62890625  C 17.955439814814817 19.876302083333332  17.46064814814815 20  16.88888888888889 20  C 16.31712962962963 20  15.822337962962965 19.876302083333332  15.404513888888888 19.62890625  L 0.6267361111111112 10.87890625  C 0.20891203703703734 10.631510416666664  0 10.338541666666664  0 10  C 0 9.661458333333332  0.20891203703703734 9.368489583333332  0.6267361111111112 9.12109375  L 15.404513888888888 0.37109375  C 15.822337962962965 0.12369791666666519  16.31712962962963 0  16.88888888888889 0  C 17.46064814814815 0  17.955439814814817 0.12369791666666519  18.37326388888889 0.37109375  Z " fill-rule="nonzero" fill="#333333" stroke="none" transform="matrix(1 0 0 1 780 356 )" />
  </g>
</svg>