<?xml version="1.0" encoding="utf-8"?>
<svg version="1.1" xmlns:xlink="http://www.w3.org/1999/xlink" width="41px" height="20px" xmlns="http://www.w3.org/2000/svg">
  <g transform="matrix(1 0 0 1 -10 -13 )">
    <path d="M 5.559709821428571 7.777777777777777  L 14.642857142857142 12.734082397003746  L 14.642857142857142 13.607990012484395  C 14.642857142857142 13.957553058676652  14.345424107142858 14.20307948397836  13.750558035714286 14.344569288389513  C 13.552269345238095 14.386183936745734  13.361607142857142 14.406991260923846  13.178571428571429 14.406991260923846  C 12.766741071428571 14.406991260923846  12.423549107142858 14.327923429047026  12.148995535714286 14.169787765293385  L 0.43470982142857145 7.777777777777777  C 0.1449032738095238 7.619642114024137  0 7.43237619642114  0 7.215980024968789  C 0 6.999583853516436  0.1449032738095238 6.812317935913439  0.43470982142857145 6.654182272159801  L 12.148995535714286 0.2621722846441954  C 12.591331845238095 0.004161464835621409  13.125186011904763 -0.05409904286309164  13.750558035714286 0.08739076154806513  C 14.345424107142858 0.22888056595921746  14.642857142857142 0.4744069912609228  14.642857142857142 0.8239700374531833  L 14.642857142857142 1.685393258426966  L 5.559709821428571 6.654182272159801  C 5.269903273809524 6.812317935913439  5.125 6.999583853516436  5.125 7.215980024968789  C 5.125 7.43237619642114  5.269903273809524 7.619642114024137  5.559709821428571 7.777777777777777  Z M 37.133370535714285 6.853932584269662  C 39.711123511904766 8.293799417394922  41 10.41198501872659  41 13.20848938826467  C 41 13.691219309196839  40.870349702380956 14.246774864752393  40.61104910714286 14.875156054931335  C 40.351748511904766 15.50353724511028  40.0581287202381 16.077819392426132  39.73018973214286 16.5980024968789  C 39.40225074404762 17.118185601331668  39.03617931547619 17.638368705784437  38.63197544642857 18.158551810237206  C 38.227771577380956 18.678734914689972  37.91889880952381 19.055347482313774  37.70535714285714 19.288389513108616  L 37.24776785714286 19.78776529338327  C 37.12574404761905 19.929255097794425  36.91220238095239 20  36.60714285714286 20  C 36.515625 20  36.44698660714286 19.995838535164378  36.40122767857143 19.987515605493133  C 36.019903273809526 19.92093216812318  35.84449404761905 19.77944236371203  35.875 19.563046192259673  C 36.53087797619048 16.233874323761963  35.72247023809524 13.882646691635454  33.449776785714285 12.50936329588015  C 32.47358630952381 11.918435289221808  31.173270089285715 11.45859342488556  29.548828125 11.12983770287141  C 27.924386160714285 10.801081980857262  25.8843005952381 10.5826050769871  23.428571428571427 10.474406991260924  L 23.428571428571427 13.607990012484395  C 23.428571428571427 13.957553058676652  23.131138392857142 14.20307948397836  22.536272321428573 14.344569288389513  C 22.337983630952387 14.386183936745734  22.14732142857143 14.406991260923846  21.964285714285715 14.406991260923846  C 21.552455357142858 14.406991260923846  21.209263392857146 14.327923429047026  20.934709821428573 14.169787765293385  L 9.220424107142858 7.777777777777777  C 8.930617559523808 7.619642114024137  8.785714285714285 7.43237619642114  8.785714285714285 7.215980024968789  C 8.785714285714285 6.999583853516436  8.930617559523808 6.812317935913439  9.220424107142858 6.654182272159801  L 20.934709821428573 0.2621722846441954  C 21.377046130952383 0.004161464835621409  21.91090029761905 -0.05409904286309164  22.536272321428573 0.08739076154806513  C 23.131138392857142 0.22888056595921746  23.428571428571427 0.4744069912609228  23.428571428571427 0.8239700374531833  L 23.428571428571427 4.094881398252184  C 29.697544642857142 4.327923429047022  34.265811011904766 5.247607157719516  37.133370535714285 6.853932584269662  Z " fill-rule="nonzero" fill="#333333" stroke="none" transform="matrix(1 0 0 1 10 13 )" />
  </g>
</svg>