<?xml version="1.0" encoding="utf-8"?>
<svg version="1.1" xmlns:xlink="http://www.w3.org/1999/xlink" width="193px" height="280px" xmlns="http://www.w3.org/2000/svg">
  <defs>
    <mask fill="white" id="clip224">
      <path d="M 0 262.1167883211679  L 0 7.883211678832117  C 0 3.4686131386861274  3.519999999999996 0  8 0  L 175 0  C 179.48000000000002 0  183 3.4686131386861274  183 7.883211678832117  L 183 209.0499175888863  L 183 262.1167883211679  C 183 266.5313868613139  179.48000000000002 270  175 270  L 8 270  C 3.519999999999996 270  0 266.5313868613139  0 262.1167883211679  Z " fill-rule="evenodd" />
    </mask>
    <filter x="94px" y="56px" width="193px" height="280px" filterUnits="userSpaceOnUse" id="filter225">
      <feOffset dx="5" dy="5" in="SourceAlpha" result="shadowOffsetInner" />
      <feGaussianBlur stdDeviation="2.5" in="shadowOffsetInner" result="shadowGaussian" />
      <feComposite in2="shadowGaussian" operator="atop" in="SourceAlpha" result="shadowComposite" />
      <feColorMatrix type="matrix" values="0 0 0 0 0  0 0 0 0 0  0 0 0 0 0  0 0 0 0.34901960784313724 0  " in="shadowComposite" />
    </filter>
    <g id="widget226">
      <path d="M 0 262.1167883211679  L 0 7.883211678832117  C 0 3.4686131386861274  3.519999999999996 0  8 0  L 175 0  C 179.48000000000002 0  183 3.4686131386861274  183 7.883211678832117  L 183 209.0499175888863  L 183 262.1167883211679  C 183 266.5313868613139  179.48000000000002 270  175 270  L 8 270  C 3.519999999999996 270  0 266.5313868613139  0 262.1167883211679  Z " fill-rule="nonzero" fill="#cccccc" stroke="none" transform="matrix(1 0 0 1 94 56 )" />
      <path d="M 0 262.1167883211679  L 0 7.883211678832117  C 0 3.4686131386861274  3.519999999999996 0  8 0  L 175 0  C 179.48000000000002 0  183 3.4686131386861274  183 7.883211678832117  L 183 209.0499175888863  L 183 262.1167883211679  C 183 266.5313868613139  179.48000000000002 270  175 270  L 8 270  C 3.519999999999996 270  0 266.5313868613139  0 262.1167883211679  Z " stroke-width="2" stroke="#797979" fill="none" transform="matrix(1 0 0 1 94 56 )" mask="url(#clip224)" />
    </g>
  </defs>
  <g transform="matrix(1 0 0 1 -94 -56 )">
    <use xlink:href="#widget226" filter="url(#filter225)" />
    <use xlink:href="#widget226" />
  </g>
</svg>