<?xml version="1.0" encoding="utf-8"?>
<svg version="1.1" xmlns:xlink="http://www.w3.org/1999/xlink" width="40px" height="39px" xmlns="http://www.w3.org/2000/svg">
  <g transform="matrix(1 0 0 1 -748 -7 )">
    <path d="M 26.471354166666664 4.544921875000002  C 24.4140625 3.6816406249999987  22.256944444444446 3.2500000000000013  20 3.2500000000000013  C 17.743055555555557 3.2500000000000013  15.5859375 3.6816406249999987  13.528645833333332 4.544921875000002  C 11.471354166666668 5.408203125  9.700520833333334 6.563476562500002  8.216145833333334 8.010742187500002  C 6.731770833333334 9.458007812500002  5.546875 11.184570312499998  4.661458333333333 13.190429687500002  C 3.776041666666667 15.1962890625  3.333333333333333 17.299479166666664  3.333333333333333 19.5  C 3.333333333333333 21.700520833333336  3.776041666666667 23.8037109375  4.661458333333333 25.809570312500004  C 5.546875 27.815429687499996  6.731770833333334 29.5419921875  8.216145833333334 30.9892578125  C 9.700520833333334 32.4365234375  11.471354166666668 33.591796875  13.528645833333332 34.455078125  C 15.5859375 35.318359375  17.743055555555557 35.75  20 35.75  C 22.256944444444446 35.75  24.4140625 35.318359375  26.471354166666664 34.455078125  C 28.528645833333336 33.591796875  30.299479166666664 32.4365234375  31.783854166666664 30.9892578125  C 33.268229166666664 29.5419921875  34.453125 27.815429687499996  35.338541666666664 25.809570312500004  C 36.223958333333336 23.8037109375  36.666666666666664 21.700520833333336  36.666666666666664 19.5  C 36.666666666666664 17.299479166666664  36.223958333333336 15.1962890625  35.338541666666664 13.190429687500002  C 34.453125 11.184570312499998  33.268229166666664 9.458007812500002  31.783854166666664 8.010742187500002  C 30.299479166666664 6.563476562500002  28.528645833333336 5.408203125  26.471354166666664 4.544921875000002  Z M 37.317708333333336 9.7119140625  C 39.10590277777777 12.699544270833329  40 15.962239583333329  40 19.5  C 40 23.037760416666668  39.10590277777777 26.30045572916666  37.317708333333336 29.2880859375  C 35.52951388888889 32.275716145833336  33.103298611111114 34.641276041666664  30.0390625 36.384765625  C 26.974826388888893 38.128255208333336  23.62847222222222 39  20 39  C 16.37152777777778 39  13.02517361111111 38.128255208333336  9.9609375 36.384765625  C 6.896701388888889 34.641276041666664  4.470486111111112 32.275716145833336  2.682291666666667 29.2880859375  C 0.8940972222222221 26.30045572916666  0 23.037760416666668  0 19.5  C 0 15.962239583333329  0.8940972222222221 12.699544270833329  2.682291666666667 9.7119140625  C 4.470486111111112 6.724283854166666  6.896701388888889 4.3587239583333295  9.9609375 2.6152343749999987  C 13.02517361111111 0.8717447916666633  16.37152777777778 0  20 0  C 23.62847222222222 0  26.974826388888893 0.8717447916666633  30.0390625 2.6152343749999987  C 33.103298611111114 4.3587239583333295  35.52951388888889 6.724283854166666  37.317708333333336 9.7119140625  Z " fill-rule="nonzero" fill="#f59a23" stroke="none" transform="matrix(1 0 0 1 748 7 )" />
  </g>
</svg>